<?xml version="1.0" encoding="UTF-8" standalone="no"?>
<!-- Generator: Adobe Illustrator 12.0.1, SVG Export Plug-In  -->

<svg
   xmlns:dc="http://purl.org/dc/elements/1.1/"
   xmlns:cc="http://creativecommons.org/ns#"
   xmlns:rdf="http://www.w3.org/1999/02/22-rdf-syntax-ns#"
   xmlns:svg="http://www.w3.org/2000/svg"
   xmlns="http://www.w3.org/2000/svg"
   xmlns:sodipodi="http://sodipodi.sourceforge.net/DTD/sodipodi-0.dtd"
   xmlns:inkscape="http://www.inkscape.org/namespaces/inkscape"
   version="1.1"
   width="58.666668"
   height="58.666668"
   viewBox="-0.966 -0.696 55 55"
   enable-background="new -0.966 -0.696 55 55"
   xml:space="preserve"
   id="svg2"
   sodipodi:version="0.32"
   inkscape:version="0.92.1 r15371"
   sodipodi:docname="Symbole_Lille_R.svg"
   inkscape:output_extension="org.inkscape.output.svg.inkscape"><metadata
     id="metadata11"><rdf:RDF><cc:Work
         rdf:about=""><dc:format>image/svg+xml</dc:format><dc:type
           rdf:resource="http://purl.org/dc/dcmitype/StillImage" /></cc:Work></rdf:RDF></metadata><sodipodi:namedview
     inkscape:window-height="1017"
     inkscape:window-width="1920"
     inkscape:pageshadow="2"
     inkscape:pageopacity="0.0"
     guidetolerance="10.0"
     gridtolerance="10.0"
     objecttolerance="10.0"
     borderopacity="1.0"
     bordercolor="#666666"
     pagecolor="#ffffff"
     id="base"
     showgrid="false"
     inkscape:zoom="23.49375"
     inkscape:cx="10.930337"
     inkscape:cy="27.429967"
     inkscape:window-x="-8"
     inkscape:window-y="-8"
     inkscape:current-layer="svg2"
     inkscape:window-maximized="1" /><defs
     id="defs4"><inkscape:perspective
       sodipodi:type="inkscape:persp3d"
       inkscape:vp_x="0 : 27.499999 : 1"
       inkscape:vp_y="0 : 999.99998 : 0"
       inkscape:vp_z="54.999999 : 27.499999 : 1"
       inkscape:persp3d-origin="27.499999 : 18.333332 : 1"
       id="perspective13" /><inkscape:perspective
       id="perspective3190"
       inkscape:persp3d-origin="372.04723 : 350.78738 : 1"
       inkscape:vp_z="744.09446 : 526.18108 : 1"
       inkscape:vp_y="0 : 999.99998 : 0"
       inkscape:vp_x="0 : 526.18108 : 1"
       sodipodi:type="inkscape:persp3d" /><inkscape:perspective
       id="perspective10"
       inkscape:persp3d-origin="200 : 133.33332 : 1"
       inkscape:vp_z="399.99999 : 200 : 1"
       inkscape:vp_y="0 : 999.99998 : 0"
       inkscape:vp_x="0 : 200 : 1"
       sodipodi:type="inkscape:persp3d" /><inkscape:perspective
       id="perspective3343"
       inkscape:persp3d-origin="37.45 : 24.966667 : 1"
       inkscape:vp_z="74.9 : 37.45 : 1"
       inkscape:vp_y="0 : 999.99998 : 0"
       inkscape:vp_x="0 : 37.45 : 1"
       sodipodi:type="inkscape:persp3d" /></defs><path
     d="M 0,26.711 C 0,11.953 11.953,0 26.707,0 41.461,0 53.418,11.953 53.418,26.711 53.418,41.453 41.461,53.41 26.707,53.41 11.953,53.41 0,41.453 0,26.711"
     id="path6"
     style="fill:#76b82a;fill-opacity:1"
     inkscape:connector-curvature="0" /><g
     id="g4419"
     transform="translate(-10.7915,-11.147)"
     style="fill:#ffffff"><path
       d="M 25.48,23.492 H 40 c 7.641,0 9.04,5.64 9.04,8.12 0,3.16 -1.6,5.879 -4.439,6.84 2.359,1.04 3.64,1.92 3.64,7.279 0,4.2 0,5.24 1.28,5.721 v 0.76 h -6.64 c -0.4,-1.36 -0.641,-2.84 -0.641,-5.8 0,-3.92 -0.24,-5.44 -4.68,-5.44 h -6.2 v 11.24 h -5.88 z m 12.92,12.64 c 3.12,0 4.64,-1.08 4.64,-3.92 0,-1.52 -0.68,-3.76 -4.199,-3.76 h -7.48 v 7.68 z"
       id="path4421"
       style="fill:#ffffff"
       inkscape:connector-curvature="0" /></g></svg>