<svg width="100" height="100" viewBox="0 0 100 100" fill="none" xmlns="http://www.w3.org/2000/svg">
<g clip-path="url(#clip0_1385_110)">
<rect width="100" height="100" fill="white"/>
<rect x="1" width="100" height="100" fill="#A05EA6"/>
<path d="M33.4914 60.4531V67H15.2677V32.8H22.2054V60.4531H33.4914ZM53.3308 38.5651C51.23 38.5651 50.204 39.982 50.204 42.8646H44.39C44.3411 36.1711 47.81 32.3114 53.624 32.3114C61.6365 32.3114 65.3985 42.034 59.8288 51.1214L54.0148 60.6486H62.9068V67H44.048V65.4366L54.1614 48.3854C55.1385 46.6754 56.2623 44.77 56.2623 42.7669C56.2623 39.982 55.2851 38.5651 53.3308 38.5651ZM70.6709 67L77.5109 54.004C76.7781 54.5414 75.8986 54.6391 75.1658 54.6391C69.7426 54.6391 66.2249 50.3397 66.2249 43.6951C66.2249 36.8551 70.6709 32.3114 77.3155 32.3114C83.9601 32.3114 88.3572 36.8551 88.3572 43.6951C88.3572 46.6266 87.5755 48.8251 86.3541 51.2191L78.1461 67H70.6709ZM77.3155 38.5163C74.7749 38.5163 73.0649 40.5683 73.0649 43.6951C73.0649 47.0174 74.7749 49.1671 77.3155 49.1671C80.0515 49.1671 81.5172 47.2129 81.5172 43.6951C81.5172 40.5683 79.8561 38.5163 77.3155 38.5163Z" fill="white"/>
</g>
<defs>
<clipPath id="clip0_1385_110">
<rect width="100" height="100" fill="white"/>
</clipPath>
</defs>
</svg>
