<svg width="100" height="100" viewBox="0 0 100 100" fill="none" xmlns="http://www.w3.org/2000/svg">
<g clip-path="url(#clip0_1385_98)">
<rect width="100" height="100" fill="white"/>
<rect width="100" height="100" fill="#FF9400"/>
<path d="M30.9408 60.4531V67H12.717V32.8H19.6547V60.4531H30.9408ZM41.4973 56.9843H47.5556C47.7022 59.5249 49.2656 61.186 51.6108 61.186C53.907 61.186 55.4705 59.134 55.4705 56.0071C55.3239 50.5351 50.9756 49.7534 47.3602 50.5351V49.5091L52.197 38.614H42.621V32.8H61.1379V33.826L55.3239 45.796C59.9165 46.7243 62.0173 51.268 62.0173 55.9583C62.0173 62.8471 57.9133 67.4886 51.7085 67.4886C45.699 67.4886 41.6439 63.2869 41.4973 56.9843ZM77.2688 32.3114C83.2782 32.3114 88.1151 36.6109 88.1151 43.9883V55.9094C88.1151 63.3357 83.2782 67.4886 77.2688 67.4886C71.2593 67.4886 66.3736 63.3357 66.3736 55.9094V43.9883C66.3736 36.6109 71.2593 32.3114 77.2688 32.3114ZM77.2688 61.0883C79.6139 61.0883 81.4216 59.6714 81.5682 56.6911C81.6171 55.8606 81.6659 54.9811 81.6659 53.9551V45.9914C81.6659 45.0143 81.6171 44.1349 81.5682 43.2066C81.4216 40.0797 79.6139 38.7117 77.2688 38.7117C74.7771 38.7117 73.0671 40.0797 72.9205 43.2066C72.8716 44.1349 72.8716 45.0143 72.8716 45.9914V53.9551C72.8716 54.9811 72.8716 55.8606 72.9205 56.6911C73.0671 59.6714 74.7771 61.0883 77.2688 61.0883Z" fill="white"/>
</g>
<defs>
<clipPath id="clip0_1385_98">
<rect width="100" height="100" fill="white"/>
</clipPath>
</defs>
</svg>
