<svg width="100" height="100" viewBox="0 0 100 100" fill="none" xmlns="http://www.w3.org/2000/svg">
<g clip-path="url(#clip0_1385_104)">
<rect width="100" height="100" fill="white"/>
<rect x="1" width="100" height="100" fill="#A05EA6"/>
<path d="M34.7319 60.4531V67H16.5082V32.8H23.4459V60.4531H34.7319ZM54.5713 38.5651C52.4705 38.5651 51.4445 39.982 51.4445 42.8646H45.6305C45.5816 36.1711 49.0505 32.3114 54.8645 32.3114C62.8771 32.3114 66.6391 42.034 61.0693 51.1214L55.2553 60.6486H64.1473V67H45.2885V65.4366L55.4019 48.3854C56.3791 46.6754 57.5028 44.77 57.5028 42.7669C57.5028 39.982 56.5256 38.5651 54.5713 38.5651ZM76.4063 67H69.4686L79.24 39.1514H67.5143V32.8H88.5229V33.826L76.4063 67Z" fill="white"/>
</g>
<defs>
<clipPath id="clip0_1385_104">
<rect width="100" height="100" fill="white"/>
</clipPath>
</defs>
</svg>
