<svg width="100" height="100" viewBox="0 0 100 100" fill="none" xmlns="http://www.w3.org/2000/svg">
<g clip-path="url(#clip0_1384_92)">
<rect width="100" height="100" fill="white"/>
<rect width="100" height="100" fill="#7592C5"/>
<path d="M35.4973 60.4531V67H17.2735V32.8H24.2113V60.4531H35.4973ZM46.8355 32.8H57.5841V61.3814H62.421V67H46.2493V61.3814H50.9395V38.5163H46.8355V32.8ZM74.2784 38.5651C72.1775 38.5651 71.1515 39.982 71.1515 42.8646H65.3375C65.2887 36.1711 68.7575 32.3114 74.5715 32.3114C82.5841 32.3114 86.3461 42.034 80.7764 51.1214L74.9624 60.6486H83.8544V67H64.9955V65.4366L75.1089 48.3854C76.0861 46.6754 77.2098 44.77 77.2098 42.7669C77.2098 39.982 76.2327 38.5651 74.2784 38.5651Z" fill="white"/>
</g>
<defs>
<clipPath id="clip0_1384_92">
<rect width="100" height="100" fill="white"/>
</clipPath>
</defs>
</svg>
