<svg width="100" height="100" viewBox="0 0 100 100" fill="none" xmlns="http://www.w3.org/2000/svg">
<g clip-path="url(#clip0_1385_95)">
<rect width="100" height="100" fill="white"/>
<rect width="100" height="100" fill="#BA7F32"/>
<path d="M35.4973 60.4531V67H17.2735V32.8H24.2113V60.4531H35.4973ZM55.3367 38.5651C53.2358 38.5651 52.2098 39.982 52.2098 42.8646H46.3958C46.347 36.1711 49.8158 32.3114 55.6298 32.3114C63.6424 32.3114 67.4044 42.034 61.8347 51.1214L56.0207 60.6486H64.9127V67H46.0538V65.4366L56.1673 48.3854C57.1444 46.6754 58.2681 44.77 58.2681 42.7669C58.2681 39.982 57.291 38.5651 55.3367 38.5651ZM69.4034 32.8H80.1519V61.3814H84.9888V67H68.8171V61.3814H73.5074V38.5163H69.4034V32.8Z" fill="white"/>
</g>
<defs>
<clipPath id="clip0_1385_95">
<rect width="100" height="100" fill="white"/>
</clipPath>
</defs>
</svg>
