<svg width="100" height="100" viewBox="0 0 100 100" fill="none" xmlns="http://www.w3.org/2000/svg">
<g clip-path="url(#clip0_1385_107)">
<rect width="100" height="100" fill="white"/>
<rect x="1" width="100" height="100" fill="#A05EA6"/>
<path d="M33.5858 60.4531V67H15.3621V32.8H22.2998V60.4531H33.5858ZM53.4253 38.5651C51.3244 38.5651 50.2984 39.982 50.2984 42.8646H44.4844C44.4356 36.1711 47.9044 32.3114 53.7184 32.3114C61.731 32.3114 65.493 42.034 59.9233 51.1214L54.1093 60.6486H63.0013V67H44.1424V65.4366L54.2559 48.3854C55.233 46.6754 56.3567 44.77 56.3567 42.7669C56.3567 39.982 55.3796 38.5651 53.4253 38.5651ZM84.9339 47.6526C87.6211 49.6069 88.8914 52.6849 89.0379 56.398C89.1845 62.3097 85.2271 67.4886 77.9962 67.4886C70.7654 67.4886 66.9057 62.3586 66.9057 56.4957C66.9057 52.7826 68.3225 49.558 71.0097 47.6037C69.6417 46.0891 68.8111 44.0371 68.7622 41.5454C68.6157 36.6597 71.9379 32.3114 77.9962 32.3114C84.1034 32.3114 87.2302 36.5131 87.2302 41.3989C87.2302 43.9394 86.4485 46.0403 84.9339 47.6526ZM77.9962 45.5029C79.9994 45.5029 81.1719 43.8417 81.1719 41.692C81.1719 39.5911 79.9505 38.0277 77.9962 38.0277C75.8954 38.0277 74.7717 39.64 74.7717 41.7409C74.7717 43.8906 75.9931 45.5029 77.9962 45.5029ZM77.9962 61.4303C80.7322 61.4303 82.2957 59.134 82.2957 56.1537C82.2957 53.0269 80.7322 50.7794 77.9962 50.7794C75.2602 50.7794 73.6968 53.1734 73.6968 56.3003C73.6968 59.2317 75.2602 61.4303 77.9962 61.4303Z" fill="white"/>
</g>
<defs>
<clipPath id="clip0_1385_107">
<rect width="100" height="100" fill="white"/>
</clipPath>
</defs>
</svg>
