<svg width="100" height="100" viewBox="0 0 100 100" fill="none" xmlns="http://www.w3.org/2000/svg">
<g clip-path="url(#clip0_1385_101)">
<rect width="100" height="100" fill="white"/>
<rect x="1" width="100" height="100" fill="#FF9400"/>
<path d="M35.7339 60.4531V67H17.5101V32.8H24.4479V60.4531H35.7339ZM46.2904 56.9843H52.3487C52.4953 59.5249 54.0587 61.186 56.4039 61.186C58.7002 61.186 60.2636 59.134 60.2636 56.0071C60.117 50.5351 55.7687 49.7534 52.1533 50.5351V49.5091L56.9902 38.614H47.4142V32.8H65.931V33.826L60.117 45.796C64.7096 46.7243 66.8104 51.268 66.8104 55.9583C66.8104 62.8471 62.7064 67.4886 56.5016 67.4886C50.4922 67.4886 46.437 63.2869 46.2904 56.9843ZM71.1667 32.8H81.9153V61.3814H86.7522V67H70.5805V61.3814H75.2707V38.5163H71.1667V32.8Z" fill="white"/>
</g>
<defs>
<clipPath id="clip0_1385_101">
<rect width="100" height="100" fill="white"/>
</clipPath>
</defs>
</svg>
