<?xml version="1.0" encoding="UTF-8" standalone="no"?>
<svg
   xmlns:dc="http://purl.org/dc/elements/1.1/"
   xmlns:cc="http://creativecommons.org/ns#"
   xmlns:rdf="http://www.w3.org/1999/02/22-rdf-syntax-ns#"
   xmlns:svg="http://www.w3.org/2000/svg"
   xmlns="http://www.w3.org/2000/svg"
   xmlns:sodipodi="http://sodipodi.sourceforge.net/DTD/sodipodi-0.dtd"
   xmlns:inkscape="http://www.inkscape.org/namespaces/inkscape"
   sodipodi:docname="Lyon_tcl_tram-7.svg"
   inkscape:version="1.0 (4035a4fb49, 2020-05-01)"
   version="1.1"
   id="svg2"
   height="72"
   width="72">
  <defs
     id="defs4" />
  <sodipodi:namedview
     inkscape:document-rotation="0"
     inkscape:window-maximized="1"
     inkscape:window-y="-8"
     inkscape:window-x="-8"
     inkscape:window-height="1017"
     inkscape:window-width="1920"
     fit-margin-bottom="0"
     fit-margin-right="0"
     fit-margin-left="0"
     fit-margin-top="0"
     showgrid="false"
     inkscape:current-layer="layer1"
     inkscape:document-units="px"
     inkscape:cy="32.923126"
     inkscape:cx="1.419813"
     inkscape:zoom="4"
     inkscape:pageshadow="2"
     inkscape:pageopacity="0.0"
     borderopacity="1.0"
     bordercolor="#666666"
     pagecolor="#ffffff"
     id="base" />
  <metadata
     id="metadata7">
    <rdf:RDF>
      <cc:Work
         rdf:about="">
        <dc:format>image/svg+xml</dc:format>
        <dc:type
           rdf:resource="http://purl.org/dc/dcmitype/StillImage" />
        <dc:title />
      </cc:Work>
    </rdf:RDF>
  </metadata>
  <g
     inkscape:label="Calque"
     id="layer1"
     inkscape:groupmode="layer">
    <flowRoot
       style="font-style:normal;font-weight:normal;line-height:0.01%;font-family:sans-serif;letter-spacing:0px;word-spacing:0px;fill:#000000;fill-opacity:1;stroke:none;stroke-width:1px;stroke-linecap:butt;stroke-linejoin:miter;stroke-opacity:1"
       id="flowRoot2988"
       xml:space="preserve"><flowRegion
         style="font-family:sans-serif"
         id="flowRegion2990"><rect
           y="9"
           x="9"
           height="46"
           width="60"
           id="rect2992" /></flowRegion><flowPara
         style="font-size:40px;line-height:1.25;font-family:sans-serif"
         id="flowPara2994"> </flowPara></flowRoot>
    <rect
       y="-9.9956935e-015"
       x="0"
       height="72"
       width="72"
       id="rect3764"
       style="fill:#873f98;fill-opacity:1;stroke:none" />
    <g
       transform="translate(-26.905918,-0.2393447)"
       style="font-style:normal;font-variant:normal;font-weight:bold;font-stretch:normal;font-size:70px;line-height:125%;font-family:Confluence;-inkscape-font-specification:'Confluence Bold';text-align:center;letter-spacing:0px;word-spacing:0px;text-anchor:middle;display:inline;fill:#ffffff;fill-opacity:1;stroke:none"
       id="flowRoot3766-3">
      <path
         d="m 54.501282,63.229615 -0.140991,0.07049 h 9.801025 c -1.9e-5,-3.267005 0.02348,-5.530695 0.0705,-6.791076 0.04555,-1.865633 0.18512,-3.545421 0.418701,-5.039368 0.280538,-1.493924 0.700663,-2.870367 1.260376,-4.129334 0.514098,-1.167788 1.283852,-2.521445 2.309265,-4.060974 l 4.761658,-7.068786 c 1.586477,-2.334159 3.079701,-4.691131 4.479675,-7.070923 1.119351,-1.773036 1.982387,-3.452823 2.589111,-5.039368 0.606654,-1.446899 1.026779,-2.824055 1.260376,-4.13147 0.186528,-1.166337 0.27981,-2.636062 0.279846,-4.409179 -3.6e-5,-0.793205 -0.04632,-1.843518 -0.138855,-3.15094 -0.04703,-1.025339 -0.117529,-1.935372 -0.211486,-2.7301027 H 47.221012 v 7.9104617 h 24.780274 c -2.7e-5,0.467167 -0.02353,0.817509 -0.0705,1.051025 -2.7e-5,0.373173 -0.02352,0.676517 -0.07049,0.910034 -0.0926,0.65373 -0.232164,1.283917 -0.418702,1.890564 -0.233587,0.699301 -0.583928,1.445557 -1.051025,2.23877 -0.186589,0.32617 -0.722783,1.236203 -1.608582,2.730102 -0.420148,0.70072 -1.236899,1.961095 -2.450256,3.781128 l -3.990478,5.949402 c -1.680517,2.56635 -3.010675,4.759544 -3.990479,6.57959 -1.026827,1.820087 -1.82008,3.77972 -2.379761,5.878906 -0.606699,2.053642 -1.003326,4.200552 -1.18988,6.440735 -0.186574,2.053636 -0.279856,4.783736 -0.279846,8.190308 z"
         id="path3131" />
    </g>
  </g>
</svg>
