<?xml version="1.0" encoding="UTF-8" standalone="no"?>
<!-- Created with Inkscape (http://www.inkscape.org/) -->

<svg
   xmlns:dc="http://purl.org/dc/elements/1.1/"
   xmlns:cc="http://creativecommons.org/ns#"
   xmlns:rdf="http://www.w3.org/1999/02/22-rdf-syntax-ns#"
   xmlns:svg="http://www.w3.org/2000/svg"
   xmlns="http://www.w3.org/2000/svg"
   xmlns:sodipodi="http://sodipodi.sourceforge.net/DTD/sodipodi-0.dtd"
   xmlns:inkscape="http://www.inkscape.org/namespaces/inkscape"
   width="72"
   height="72"
   id="svg2"
   version="1.1"
   inkscape:version="0.48.1 "
   sodipodi:docname="funi-2.svg">
  <defs
     id="defs4" />
  <sodipodi:namedview
     id="base"
     pagecolor="#ffffff"
     bordercolor="#666666"
     borderopacity="1.0"
     inkscape:pageopacity="0.0"
     inkscape:pageshadow="2"
     inkscape:zoom="5.6568542"
     inkscape:cx="62.304564"
     inkscape:cy="11.284539"
     inkscape:document-units="px"
     inkscape:current-layer="layer1"
     showgrid="false"
     fit-margin-top="0"
     fit-margin-left="0"
     fit-margin-right="0"
     fit-margin-bottom="0"
     inkscape:window-width="1280"
     inkscape:window-height="968"
     inkscape:window-x="-4"
     inkscape:window-y="-4"
     inkscape:window-maximized="1" />
  <metadata
     id="metadata7">
    <rdf:RDF>
      <cc:Work
         rdf:about="">
        <dc:format>image/svg+xml</dc:format>
        <dc:type
           rdf:resource="http://purl.org/dc/dcmitype/StillImage" />
        <dc:title />
      </cc:Work>
    </rdf:RDF>
  </metadata>
  <g
     inkscape:groupmode="layer"
     id="layer1"
     inkscape:label="Calque">
    <flowRoot
       xml:space="preserve"
       id="flowRoot2988"
       style="fill:black;stroke:none;stroke-opacity:1;stroke-width:1px;stroke-linejoin:miter;stroke-linecap:butt;fill-opacity:1;font-family:Sans;font-style:normal;font-weight:normal;font-size:40px;line-height:125%;letter-spacing:0px;word-spacing:0px"><flowRegion
         id="flowRegion2990"><rect
           id="rect2992"
           width="60"
           height="46"
           x="9"
           y="9" /></flowRegion><flowPara
         id="flowPara2994" /></flowRoot>    <rect
       style="fill:#8bc752;fill-opacity:1;stroke:none"
       id="rect3764"
       width="72"
       height="72"
       x="0"
       y="-9.9956935e-015" />
    <g
       transform="translate(-7.7333374,1.1003853)"
       style="font-size:70px;font-style:normal;font-variant:normal;font-weight:bold;font-stretch:normal;text-align:center;line-height:125%;letter-spacing:0px;word-spacing:0px;text-anchor:middle;fill:#ffffff;fill-opacity:1;stroke:none;font-family:Confluence;-inkscape-font-specification:Confluence Bold"
       id="flowRoot3766">
      <path
         d="m 26.343201,55.620179 0.20935,7.000427 34.230957,0 0,-7.839966 -23.870239,0 c 0.09398,-0.747672 0.163764,-1.284578 0.209351,-1.610718 0.09398,-0.559682 0.304043,-1.120086 0.630188,-1.681213 0.374538,-0.606678 0.864446,-1.213367 1.469726,-1.820068 0.653671,-0.606676 1.49392,-1.306647 2.520752,-2.099915 l 7.76947,-5.808411 c 1.633477,-1.260354 3.127413,-2.520728 4.481812,-3.781128 1.305917,-1.166356 2.425301,-2.473015 3.358154,-3.919982 0.840216,-1.30592 1.493902,-2.822642 1.96106,-4.550171 0.467086,-1.586473 0.700647,-3.522608 0.700683,-5.808411 -3.6e-5,-2.520711 -0.443659,-4.691119 -1.330871,-6.51123 C 57.750739,15.276801 56.491076,13.666797 54.904602,12.359375 53.271068,11.006481 51.35772,10.026664 49.164551,9.4199223 46.924334,8.7662895 44.497578,8.4394466 41.884277,8.4393925 39.597071,8.4394466 36.983751,8.836073 34.044312,9.6292729 31.150424,10.422579 28.490107,11.542674 26.063354,12.989563 l 3.080445,6.650086 c 0.65368,-0.373085 1.423435,-0.723427 2.309265,-1.051026 0.747672,-0.326086 1.728201,-0.699214 2.941589,-1.119384 1.025379,-0.326086 2.121976,-0.605932 3.289795,-0.839539 1.305934,-0.233515 2.448816,-0.350295 3.42865,-0.350342 1.166363,4.7e-5 2.286459,0.140326 3.360291,0.420838 1.120787,0.279179 2.077817,0.745589 2.871093,1.399231 0.79323,0.606733 1.446203,1.493268 1.958924,2.659607 0.514093,1.120849 0.771153,2.451007 0.771179,3.990478 -2.6e-5,1.213416 -0.163448,2.28687 -0.490265,3.220368 -0.326869,0.933566 -0.817133,1.866742 -1.470795,2.79953 -0.606713,0.840281 -1.376467,1.680531 -2.309265,2.520752 -1.073833,0.932848 -2.124145,1.7496 -3.15094,2.450256 l -6.440735,4.830017 c -3.406584,2.566344 -5.925909,5.062883 -7.557983,7.489624 -1.540938,2.332776 -2.311404,4.852813 -2.311401,7.56012 z"
         style=""
         id="path3147" />
    </g>
  </g>
</svg>
