<?xml version="1.0" encoding="utf-8"?>
<!-- Generator: Adobe Illustrator 16.0.0, SVG Export Plug-In . SVG Version: 6.00 Build 0)  -->
<!DOCTYPE svg PUBLIC "-//W3C//DTD SVG 1.1//EN" "http://www.w3.org/Graphics/SVG/1.1/DTD/svg11.dtd">
<svg version="1.1"
	 id="Layer_1" inkscape:version="0.46" inkscape:output_extension="org.inkscape.output.svg.inkscape" sodipodi:version="0.32" sodipodi:docname="20090101024514!Metro-M.svg" xmlns:svg="http://www.w3.org/2000/svg" xmlns:dc="http://purl.org/dc/elements/1.1/" xmlns:cc="http://creativecommons.org/ns#" xmlns:rdf="http://www.w3.org/1999/02/22-rdf-syntax-ns#" xmlns:sodipodi="http://sodipodi.sourceforge.net/DTD/sodipodi-0.dtd" xmlns:inkscape="http://www.inkscape.org/namespaces/inkscape"
	 xmlns="http://www.w3.org/2000/svg" xmlns:xlink="http://www.w3.org/1999/xlink" x="0px" y="0px" width="400px" height="400px"
	 viewBox="0 0 400 400" enable-background="new 0 0 400 400" xml:space="preserve">
<defs>
	
	
		<inkscape:perspective  id="perspective10" inkscape:persp3d-origin="200 : 133.33333 : 1" sodipodi:type="inkscape:persp3d" inkscape:vp_x="0 : 200 : 1" inkscape:vp_y="0 : 1000 : 0" inkscape:vp_z="400 : 200 : 1">
		</inkscape:perspective>
</defs>
<sodipodi:namedview  id="base" inkscape:window-y="0" inkscape:window-x="207" inkscape:window-width="1231" inkscape:current-layer="Layer_1" inkscape:pageopacity="0.0" inkscape:pageshadow="2" inkscape:window-height="942" gridtolerance="10.0" inkscape:cx="126.90217" bordercolor="#666666" pagecolor="#ffffff" guidetolerance="10.0" showgrid="false" borderopacity="1.0" inkscape:cy="200" inkscape:zoom="1.165" objecttolerance="10.0">
	</sodipodi:namedview>
<circle fill="#FEDA11" cx="199.75" cy="200.25" r="189.75"/>
<g>
	<path fill="#FFFFFF" d="M198.446,154.081H160.67v119.42h-28.23v-119.42H94.664v-25.184h103.782V154.081z"/>
	<path fill="#FFFFFF" d="M304.461,273.501h-87.939v-23.762l53.847-62.757c4.991-5.82,7.487-11.643,7.487-17.466
		c0-5.414-1.52-9.78-4.553-13.1c-3.037-3.316-7.322-4.976-12.854-4.976c-11.742,0-17.609,6.163-17.609,18.482h-26.315
		c0-12.862,4.266-23.22,12.795-31.074c8.123-7.445,18.549-11.17,31.277-11.17c12.997,0,23.559,3.792,31.682,11.374
		c8.125,7.584,12.186,17.806,12.186,30.667c0,6.499-1.354,12.322-4.061,17.466c-1.898,3.928-5.688,9.139-11.373,15.638
		l-40.418,46.916h55.852v23.762H304.461z"/>
</g>
</svg>
