<?xml version="1.0" encoding="utf-8"?>
<!-- Generator: Adobe Illustrator 16.0.0, SVG Export Plug-In . SVG Version: 6.00 Build 0)  -->
<!DOCTYPE svg PUBLIC "-//W3C//DTD SVG 1.1//EN" "http://www.w3.org/Graphics/SVG/1.1/DTD/svg11.dtd">
<svg version="1.1"
	 id="Layer_1" inkscape:version="0.46" inkscape:output_extension="org.inkscape.output.svg.inkscape" sodipodi:version="0.32" sodipodi:docname="20090101024514!Metro-M.svg" xmlns:svg="http://www.w3.org/2000/svg" xmlns:dc="http://purl.org/dc/elements/1.1/" xmlns:cc="http://creativecommons.org/ns#" xmlns:rdf="http://www.w3.org/1999/02/22-rdf-syntax-ns#" xmlns:sodipodi="http://sodipodi.sourceforge.net/DTD/sodipodi-0.dtd" xmlns:inkscape="http://www.inkscape.org/namespaces/inkscape"
	 xmlns="http://www.w3.org/2000/svg" xmlns:xlink="http://www.w3.org/1999/xlink" x="0px" y="0px" width="400px" height="400px"
	 viewBox="0 0 400 400" enable-background="new 0 0 400 400" xml:space="preserve">
<defs>
	
	
		<inkscape:perspective  id="perspective10" inkscape:persp3d-origin="200 : 133.33333 : 1" sodipodi:type="inkscape:persp3d" inkscape:vp_x="0 : 200 : 1" inkscape:vp_y="0 : 1000 : 0" inkscape:vp_z="400 : 200 : 1">
		</inkscape:perspective>
</defs>
<sodipodi:namedview  id="base" inkscape:window-y="0" inkscape:window-x="207" inkscape:window-width="1231" inkscape:current-layer="Layer_1" inkscape:pageopacity="0.0" inkscape:pageshadow="2" inkscape:window-height="942" gridtolerance="10.0" inkscape:cx="126.90217" bordercolor="#666666" pagecolor="#ffffff" guidetolerance="10.0" showgrid="false" borderopacity="1.0" inkscape:cy="200" inkscape:zoom="1.165" objecttolerance="10.0">
	</sodipodi:namedview>
<circle fill="#8AC865" cx="199.75" cy="200.25" r="189.75"/>
<g>
	<path fill="#FFFFFF" d="M198.446,153.081H160.67v119.42h-28.23v-119.42H94.664v-25.184h103.782V153.081z"/>
	<path fill="#FFFFFF" d="M305.273,230.663c0,13.812-4.537,24.575-13.607,32.292c-8.396,7.179-19.16,10.765-32.291,10.765
		c-12.865,0-23.426-3.315-31.684-9.952c-9.479-7.58-14.287-18.48-14.42-32.697h26.401c0.134,6.229,2.164,10.968,6.095,14.217
		c3.52,3.115,8.053,4.671,13.606,4.671c5.819,0,10.524-1.758,14.114-5.28c3.587-3.52,5.382-8.46,5.382-14.826
		c0-6.093-1.795-10.932-5.382-14.521c-3.59-3.586-8.565-5.382-14.928-5.382h-3.858v-22.95h3.823c12.07,0,18.109-6.023,18.109-18.075
		c0-5.82-1.688-10.358-5.061-13.607c-3.377-3.25-7.559-4.875-12.551-4.875c-4.994,0-9.144,1.558-12.449,4.671
		c-3.307,3.116-5.096,7.381-5.363,12.795h-26.316c0.271-12.592,4.603-22.61,12.998-30.058c8.396-7.445,18.818-11.17,31.277-11.17
		c12.861,0,23.422,3.859,31.682,11.577c8.258,7.717,12.39,17.669,12.39,29.855c0,13.811-5.554,23.695-16.652,29.652
		C299.045,204.396,305.273,215.364,305.273,230.663z"/>
</g>
</svg>
