<svg xmlns="http://www.w3.org/2000/svg" viewBox="0 0 362.2 361.2">
  <defs>
    <clipPath id="c"><circle cx="181.1" cy="180.6" r="180.6"/></clipPath>
  </defs>
  <g clip-path="url(#c)">
    <rect x="0" y="0" fill="#00234F" width="362.2" height="361.2"/>
    <path fill="#00888A" d="M362.2,361.2H4.8C73.5,201.6,202.2,73.4,362.2,4.3V361.2"/>
    <path fill="#FFFFFF" d="M122.1,139.5c23.4-23.5,55.6-52.1,73.8-64.9H27.9C66,97.7,122.1,139.5,122.1,139.5"/>
    <path fill="#FFFFFF" d="M142.7,155.4c79.9,61.2,153.4,130.3,219.4,205.8v-71.1c-69.2-58.6-136.4-105.8-207-147.3
      C151.1,146.9,146.8,151.2,142.7,155.4"/>
    <path fill="#FFFFFF" d="M162.3,136.2c74.7,38.7,146.1,82.9,199.9,123.3V210c-59.9-32.9-122.3-61.8-186.3-86.4
      C171.3,127.7,166.8,132,162.3,136.2"/>
    <path fill="#FFFFFF" d="M193.6,108.2c57.2,15,113.7,33.2,168.6,54.8v-39.3c-49.7-11.6-100.3-21.4-151.6-29.2
      C204.9,99,199.2,103.6,193.6,108.2"/>
    <path fill="#FFFFFF" d="M219,88.1c47.7,4.6,95.8,9.9,143.2,16.4V74.6h-125C231,79,224.9,83.5,219,88.1"/>
  </g>
</svg>
