<svg clip-rule="evenodd" fill-rule="evenodd" stroke-linejoin="round" stroke-miterlimit="2" viewBox="0 0 145 145" xmlns="http://www.w3.org/2000/svg"><g transform="translate(-3.5 -2.5)"><circle cx="74.99969953" cy="75.00023858" fill="#fff" r="66.91969734" stroke-width="1.08379"/><g fill="#2d8e2d" fill-rule="nonzero"><path d="m95 81.8c0 9.4-5.9 18-15.8 18s-15.8-8.6-15.8-18 5.9-18 15.8-18c9.9.1 15.8 8.7 15.8 18zm-44.6 30h12.7v-9h.2c3.9 7.2 11 10.5 18.5 10.5 16.6 0 26.6-13.7 26.6-31.5 0-17.7-10.6-31.5-26-31.5-10.1 0-15.4 5.2-18.2 9.1h-.3v-26.2h-13.5z"/><path d="m76 2.5c-40.1 0-72.5 32.5-72.5 72.5s32.5 72.5 72.5 72.5 72.5-32.5 72.5-72.5-32.5-72.5-72.5-72.5zm0 135c-34.5 0-62.5-28-62.5-62.5s28-62.5 62.5-62.5 62.5 28 62.5 62.5c-.1 34.5-28 62.5-62.5 62.5z"/></g></g></svg>