<?xml version="1.0" encoding="UTF-8" standalone="no"?>
<!-- Created with Inkscape (http://www.inkscape.org/) -->

<svg
   xmlns:dc="http://purl.org/dc/elements/1.1/"
   xmlns:cc="http://creativecommons.org/ns#"
   xmlns:rdf="http://www.w3.org/1999/02/22-rdf-syntax-ns#"
   xmlns:svg="http://www.w3.org/2000/svg"
   xmlns="http://www.w3.org/2000/svg"
   xmlns:sodipodi="http://sodipodi.sourceforge.net/DTD/sodipodi-0.dtd"
   xmlns:inkscape="http://www.inkscape.org/namespaces/inkscape"
   id="svg4136"
   version="1.1"
   inkscape:version="0.91 r13725"
   xml:space="preserve"
   width="121.71339"
   height="121.71339"
   viewBox="0 0 121.71339 121.71339"
   sodipodi:docname="Logo Metro Renes ligne a.svg"><metadata
     id="metadata4142"><rdf:RDF><cc:Work
         rdf:about=""><dc:format>image/svg+xml</dc:format><dc:type
           rdf:resource="http://purl.org/dc/dcmitype/StillImage" /><dc:title></dc:title></cc:Work></rdf:RDF></metadata><defs
     id="defs4140"><clipPath
       clipPathUnits="userSpaceOnUse"
       id="clipPath4150"><path
         d="m 0,0 269.29,0 0,447.87 L 0,447.87 0,0 Z"
         id="path4152"
         inkscape:connector-curvature="0" /></clipPath><clipPath
       clipPathUnits="userSpaceOnUse"
       id="clipPath4254"><path
         d="m 32.31,18.14 36.95,0 0,36.95 -36.95,0 0,-36.95 z m 5.62,20.3 c -0.64,1.02 -0.97,2.08 -0.99,3.17 -0.06,2.34 1.18,4.37 3.73,6.09 2.59,1.75 5.83,2.67 9.75,2.77 0.2,0 0.4,0 0.6,0 3.21,0 5.99,-0.63 8.36,-1.89 l -3.44,-2.3 -0.39,-0.25 c -2.02,0.7 -4.11,1.05 -6.27,1.05 -0.15,0 -0.31,0 -0.46,-0.01 -2.32,-0.05 -4.23,-0.52 -5.71,-1.39 -0.88,-0.52 -1.56,-1.13 -2.05,-1.83 -0.49,-0.71 -0.72,-1.42 -0.71,-2.15 0.04,-1.54 1.03,-2.84 2.96,-3.91 L 40.91,36 40.59,35.78 c -1.13,0.75 -2.02,1.64 -2.66,2.66 m 23.04,9.06 c 1.13,-0.75 2.02,-1.63 2.67,-2.65 0.64,-1.03 0.98,-2.08 1,-3.17 0.07,-2.34 -1.18,-4.37 -3.72,-6.1 -2.59,-1.76 -5.83,-2.69 -9.74,-2.79 -0.2,-0.01 -0.41,-0.01 -0.61,-0.01 -3.21,0 -5.99,0.62 -8.35,1.88 l 3.42,2.3 c 0.01,0 0.02,-0.01 0.02,-0.01 0,0 -0.01,0.01 -0.02,0.01 l 0.4,0.26 c 2,-0.69 4.07,-1.04 6.21,-1.04 0.17,0 0.34,0 0.51,0.01 2.32,0.06 4.23,0.53 5.72,1.4 0.87,0.52 1.55,1.13 2.04,1.84 0.48,0.7 0.72,1.42 0.7,2.15 -0.04,1.53 -1.03,2.84 -2.96,3.9 l 2.4,1.79 0,-0.01 c 0.96,-0.59 1.78,-1.41 2.46,-2.44 0.69,-1.03 1.03,-1.99 1.06,-2.88 0,-0.04 0,-0.07 0,-0.11 0,0.04 0,0.07 0,0.11 -0.03,0.89 -0.37,1.85 -1.06,2.88 -0.68,1.03 -1.5,1.85 -2.46,2.44 l 0,0.01 0.31,0.23 z m -12.35,0.09 c -0.04,0 -0.07,0 -0.1,0 0.03,0 0.06,0 0.1,0 m 7.23,-1.27 c -2.62,1.03 -5.67,1.26 -7.22,1.27 1.55,-0.01 4.6,-0.24 7.22,-1.27 m -7.69,1.27 c 0.01,0 0.01,0 0.01,0 0,0 0,0 -0.01,0 m 7.75,-1.29 c -0.02,0 -0.03,0.01 -0.05,0.01 0.02,0 0.03,-0.01 0.05,-0.01 m 0.03,-0.02 c -0.01,0.01 -0.01,0.01 -0.02,0.01 0.01,0 0.01,0 0.02,-0.01 M 45.72,36.93 c -0.01,0 -0.02,0.01 -0.03,0.01 0.01,0 0.02,-0.01 0.03,-0.01 m 7.32,-1.26 c -1.53,0.01 -4.65,0.21 -7.32,1.26 2.67,-1.05 5.79,-1.25 7.32,-1.26 M 40.91,36 l 0,0.01 0,-0.01 z m 12.52,-0.32 c 0.01,0 0.01,0 0.01,0 0,0 0,0 -0.01,0"
         id="path4256"
         inkscape:connector-curvature="0" /></clipPath><radialGradient
       fx="0"
       fy="0"
       cx="0"
       cy="0"
       r="1"
       gradientUnits="userSpaceOnUse"
       gradientTransform="matrix(29.14517,0,0,-57.70706,45.14151,30.34035)"
       spreadMethod="pad"
       id="radialGradient4268"><stop
         style="stop-opacity:1;stop-color:#0f53a2"
         offset="0"
         id="stop4270" /><stop
         style="stop-opacity:1;stop-color:#00295a"
         offset="1"
         id="stop4272" /></radialGradient><clipPath
       clipPathUnits="userSpaceOnUse"
       id="clipPath4296"><path
         d="m 50.42,50.47 c -3.92,-0.1 -7.16,-1.02 -9.75,-2.77 -2.55,-1.72 -3.79,-3.75 -3.73,-6.09 0.02,-1.09 0.35,-2.15 0.99,-3.17 0.64,-1.02 1.53,-1.91 2.66,-2.66 l 0.32,0.22 0,0.01 c -0.96,0.6 -1.78,1.42 -2.46,2.45 -0.68,1.04 -1.03,2 -1.05,2.89 0,0.03 -0.01,0.06 -0.01,0.1 0,0.88 0.28,1.73 0.84,2.54 0.58,0.84 1.37,1.52 2.37,2.05 1.83,0.95 4.35,1.47 7.55,1.55 0.01,0 0.01,0 0.01,0 0.01,0 0.01,0 0.01,0 0.09,0 0.2,0 0.32,0 0.01,0 0.02,0 0.03,0 0.03,0 0.06,0 0.1,0 0,0 0.01,0 0.01,0 1.55,-0.01 4.6,-0.24 7.22,-1.27 0.01,0 0.01,0 0.01,-0.01 0.02,0 0.03,-0.01 0.05,-0.01 0,-0.01 0.01,-0.01 0.01,-0.01 0.01,0 0.01,0 0.02,-0.01 l 3.44,2.3 c -2.37,1.26 -5.15,1.89 -8.36,1.89 -0.2,0 -0.4,0 -0.6,0"
         id="path4298"
         inkscape:connector-curvature="0" /></clipPath><clipPath
       clipPathUnits="userSpaceOnUse"
       id="clipPath4304"><path
         d="m 36.82,35.69 22.61,0 0,14.86 -22.61,0 0,-14.86 z"
         id="path4306"
         inkscape:connector-curvature="0" /></clipPath><clipPath
       clipPathUnits="userSpaceOnUse"
       id="clipPath4316"><path
         d="m 48.49,47.59 c -0.12,0 -0.23,0 -0.32,0 0,0 0,0 -0.01,0 0,0 0,0 -0.01,0 -3.2,-0.08 -5.72,-0.6 -7.55,-1.55 -1,-0.53 -1.79,-1.21 -2.37,-2.05 -0.56,-0.81 -0.84,-1.66 -0.84,-2.54 0,-0.04 0.01,-0.07 0.01,-0.1 0.02,-0.89 0.37,-1.85 1.05,-2.89 0.68,-1.03 1.5,-1.85 2.46,-2.45 l 0,-0.01 2.4,1.79 c -1.93,1.07 -2.92,2.37 -2.96,3.91 -0.01,0.73 0.22,1.44 0.71,2.15 0.49,0.7 1.17,1.31 2.05,1.83 1.48,0.87 3.39,1.34 5.71,1.39 0.15,0.01 0.31,0.01 0.46,0.01 2.16,0 4.25,-0.35 6.27,-1.05 l 0.39,0.25 c -0.01,0.01 -0.01,0.01 -0.02,0.01 0,0 -0.01,0 -0.01,0.01 -0.02,0 -0.03,0.01 -0.05,0.01 0,0.01 0,0.01 -0.01,0.01 -2.62,1.03 -5.67,1.26 -7.22,1.27 0,0 -0.01,0 -0.01,0 -0.04,0 -0.07,0 -0.1,0 -0.01,0 -0.02,0 -0.03,0"
         id="path4318"
         inkscape:connector-curvature="0" /></clipPath><clipPath
       clipPathUnits="userSpaceOnUse"
       id="clipPath4324"><path
         d="m 37.32,35.94 18.69,0 0,11.73 -18.69,0 0,-11.73 z"
         id="path4326"
         inkscape:connector-curvature="0" /></clipPath><clipPath
       clipPathUnits="userSpaceOnUse"
       id="clipPath4336"><path
         d="m 48.49,47.59 c 0.01,0 0.02,0 0.03,0 -0.01,0 -0.02,0 -0.03,0 m -0.32,0 c 0.09,0 0.2,0 0.32,0 -0.12,0 -0.23,0 -0.32,0 m 0.45,0 c 0,0 0.01,0 0.01,0 0,0 -0.01,0 -0.01,0 m -0.47,0 c 0.01,0 0.01,0 0.01,0 0,0 0,0 -0.01,0 m 7.71,-1.28 c 0,0.01 0,0.01 -0.01,0.01 0.01,0 0.01,0 0.01,-0.01 m 0.06,-0.02 c 0,0 -0.01,0 -0.01,0.01 0,-0.01 0.01,-0.01 0.01,-0.01 M 37.4,41.35 c 0.02,-0.89 0.37,-1.85 1.05,-2.89 0.68,-1.03 1.5,-1.85 2.46,-2.45 -0.96,0.6 -1.78,1.42 -2.46,2.45 -0.68,1.04 -1.03,2 -1.05,2.89 0,0.03 -0.01,0.06 -0.01,0.1 0,-0.04 0.01,-0.07 0.01,-0.1"
         id="path4338"
         inkscape:connector-curvature="0" /></clipPath><clipPath
       clipPathUnits="userSpaceOnUse"
       id="clipPath4344"><path
         d="m 37.32,35.94 18.65,0 0,11.73 -18.65,0 0,-11.73 z"
         id="path4346"
         inkscape:connector-curvature="0" /></clipPath><clipPath
       clipPathUnits="userSpaceOnUse"
       id="clipPath4356"><path
         d="m 60.66,47.27 0,-0.01 c 0.96,-0.59 1.78,-1.41 2.46,-2.44 0.69,-1.03 1.03,-1.99 1.06,-2.88 0,-0.04 0,-0.07 0,-0.11 0,-0.89 -0.28,-1.73 -0.83,-2.54 -0.57,-0.83 -1.37,-1.51 -2.37,-2.05 -1.83,-0.96 -4.34,-1.48 -7.54,-1.56 0,0 0,0 -0.01,0 -0.11,0 -0.23,-0.01 -0.37,-0.01 l -0.02,0 c -1.53,0.01 -4.65,0.21 -7.32,1.26 0,0 0,0 0,0 -0.01,0 -0.02,0.01 -0.03,0.01 -0.01,0 -0.02,0.01 -0.03,0.01 0,0 -0.01,0.01 -0.02,0.01 l -3.42,-2.3 c 2.36,-1.26 5.14,-1.88 8.35,-1.88 0.2,0 0.41,0 0.61,0.01 3.91,0.1 7.15,1.03 9.74,2.79 2.54,1.73 3.79,3.76 3.72,6.1 -0.02,1.09 -0.36,2.14 -1,3.17 -0.65,1.02 -1.54,1.9 -2.67,2.65 l -0.31,-0.23 z"
         id="path4358"
         inkscape:connector-curvature="0" /></clipPath><clipPath
       clipPathUnits="userSpaceOnUse"
       id="clipPath4364"><path
         d="m 42.16,32.72 22.61,0 0,14.86 -22.61,0 0,-14.86 z"
         id="path4366"
         inkscape:connector-curvature="0" /></clipPath><clipPath
       clipPathUnits="userSpaceOnUse"
       id="clipPath4376"><path
         d="m 58.26,45.48 c 1.93,-1.06 2.92,-2.37 2.96,-3.9 0.02,-0.73 -0.22,-1.45 -0.7,-2.15 -0.49,-0.71 -1.17,-1.32 -2.04,-1.84 -1.49,-0.87 -3.4,-1.34 -5.72,-1.4 -0.17,-0.01 -0.34,-0.01 -0.51,-0.01 -2.14,0 -4.21,0.35 -6.21,1.04 l -0.4,-0.26 c 0.01,0 0.02,-0.01 0.02,-0.01 0.01,0 0.02,-0.01 0.03,-0.01 0.01,0 0.02,-0.01 0.03,-0.01 0,0 0,0 0,0 2.67,-1.05 5.79,-1.25 7.32,-1.26 l 0.02,0 c 0.14,0 0.26,0.01 0.37,0.01 0.01,0 0.01,0 0.01,0 3.2,0.08 5.71,0.6 7.54,1.56 1,0.54 1.8,1.22 2.37,2.05 0.55,0.81 0.83,1.65 0.83,2.54 0,0.04 0,0.07 0,0.11 -0.03,0.89 -0.37,1.85 -1.06,2.88 -0.68,1.03 -1.5,1.85 -2.46,2.44 l 0,0.01 -2.4,-1.79 z"
         id="path4378"
         inkscape:connector-curvature="0" /></clipPath><clipPath
       clipPathUnits="userSpaceOnUse"
       id="clipPath4384"><path
         d="m 45.58,35.6 18.65,0 0,11.73 -18.65,0 0,-11.73 z"
         id="path4386"
         inkscape:connector-curvature="0" /></clipPath><clipPath
       clipPathUnits="userSpaceOnUse"
       id="clipPath4396"><path
         d="m 63.35,39.29 c -0.57,-0.83 -1.37,-1.51 -2.37,-2.05 -1.83,-0.96 -4.34,-1.48 -7.54,-1.56 3.2,0.08 5.71,0.6 7.54,1.56 1,0.54 1.8,1.22 2.37,2.05 0.55,0.81 0.83,1.65 0.83,2.54 0,-0.89 -0.28,-1.73 -0.83,-2.54 M 45.69,36.94 c -0.01,0 -0.02,0.01 -0.03,0.01 0.01,0 0.02,-0.01 0.03,-0.01 m 0.03,-0.01 c 0,0 0,0 0,0 0,0 0,0 0,0 m 7.34,-1.26 c 0.14,0 0.26,0.01 0.37,0.01 -0.11,0 -0.23,-0.01 -0.37,-0.01 m -0.02,0 0.02,0 -0.02,0 z"
         id="path4398"
         inkscape:connector-curvature="0" /></clipPath><clipPath
       clipPathUnits="userSpaceOnUse"
       id="clipPath4404"><path
         d="m 45.58,35.6 18.65,0 0,6.31 -18.65,0 0,-6.31 z"
         id="path4406"
         inkscape:connector-curvature="0" /></clipPath><clipPath
       clipPathUnits="userSpaceOnUse"
       id="clipPath4472"><path
         d="m 76.49,379.04 48.76,0 0,48.76 -48.76,0 0,-48.76 z"
         id="path4474"
         inkscape:connector-curvature="0" /></clipPath><clipPath
       clipPathUnits="userSpaceOnUse"
       id="clipPath4492"><path
         d="m 128.02,380.35 53.97,0 0,44.72 -53.97,0 0,-44.72 z"
         id="path4494"
         inkscape:connector-curvature="0" /></clipPath><clipPath
       clipPathUnits="userSpaceOnUse"
       id="clipPath4508"><path
         d="m 37.78,205.67 19.45,0 0,19.45 -19.45,0 0,-19.45 z"
         id="path4510"
         inkscape:connector-curvature="0" /></clipPath><clipPath
       clipPathUnits="userSpaceOnUse"
       id="clipPath4472-0"><path
         d="m 76.49,379.04 48.76,0 0,48.76 -48.76,0 0,-48.76 z"
         id="path4474-3"
         inkscape:connector-curvature="0" /></clipPath></defs><sodipodi:namedview
     pagecolor="#ffffff"
     bordercolor="#666666"
     borderopacity="1"
     objecttolerance="10"
     gridtolerance="10"
     guidetolerance="10"
     inkscape:pageopacity="0"
     inkscape:pageshadow="2"
     inkscape:window-width="1920"
     inkscape:window-height="1017"
     id="namedview4138"
     showgrid="false"
     inkscape:zoom="2.9293955"
     inkscape:cx="85.165251"
     inkscape:cy="4.0809243"
     inkscape:window-x="-8"
     inkscape:window-y="-8"
     inkscape:window-maximized="1"
     inkscape:current-layer="g4468"
     fit-margin-top="0"
     fit-margin-left="0"
     fit-margin-right="0"
     fit-margin-bottom="0" /><g
     id="g4144"
     inkscape:groupmode="layer"
     inkscape:label="hli-1001_2016-02-01_pas-de-fin"
     transform="matrix(1.25,0,0,-1.25,-0.37100821,559.66981)"><g
       id="g4468"
       transform="translate(-76.193195,19.935853)"><g
         id="g4470"
         clip-path="url(#clipPath4472)"
         transform="matrix(1.9969383,0,0,1.9969383,-76.255809,-426.49021)"><g
           id="g4476"
           transform="matrix(0.01,0,0,0.01,78.1445,380.6774)"><path
             d="M 2274,4548 C 3529,4548 4544,3531 4544,2272 4544,1018 3529,0 2274,0 1017,0 0,1018 0,2272 0,3531 1017,4548 2274,4548"
             style="fill:#ffffff;fill-opacity:1;fill-rule:nonzero;stroke:none"
             id="path4478"
             inkscape:connector-curvature="0" /></g><g
           id="g4480"
           transform="translate(78.1445,380.6774)"><path
             d="m 22.736,45.479 c 12.551,0 22.708,-10.17099 22.708,-22.75698 C 45.444,10.17801 35.287,0 22.736,0 10.171,0 0,10.17801 0,22.72202 0,35.30801 10.171,45.479 22.736,45.479 Z"
             style="fill:none;stroke:#db2b1c;stroke-width:3.33899999;stroke-linecap:butt;stroke-linejoin:miter;stroke-miterlimit:4;stroke-dasharray:none;stroke-opacity:1"
             id="path4482"
             inkscape:connector-curvature="0" /><g
             id="g4484"
             transform="matrix(0.01,0,0,0.01,10.3432,10.28091)"><path
               d="m 1513,1165 c -239,0 -768,-20 -768,-362 0,-186 198,-275 369,-275 305,0 590,161 590,472 l 0,165 -191,0 z m 191,-787 -10,0 C 1523,108 1212,0 896,0 424,0 0,270 0,777 c 0,870 1057,886 1704,886 0,275 -228,450 -498,450 -253,0 -466,-114 -631,-300 l -415,425 c 285,269 700,404 1108,404 908,0 1151,-462 1151,-1300 l 0,-1280 -715,0 0,316 z"
               style="fill:#db2b1c;fill-opacity:1;fill-rule:nonzero;stroke:none"
               id="path4486"
               inkscape:connector-curvature="0" /></g></g></g><text
         xml:space="preserve"
         style="font-style:normal;font-variant:normal;font-weight:normal;font-stretch:normal;font-size:32px;line-height:125%;font-family:Confluence;-inkscape-font-specification:'Confluence, Normal';text-align:start;letter-spacing:0px;word-spacing:0px;writing-mode:lr-tb;text-anchor:start;fill:#000000;fill-opacity:1;stroke:none;stroke-width:1px;stroke-linecap:butt;stroke-linejoin:miter;stroke-opacity:1"
         x="179.1496"
         y="-399.26328"
         id="text5159"
         sodipodi:linespacing="125%"
         transform="scale(1,-1)"><tspan
           sodipodi:role="line"
           id="tspan5161"
           x="179.1496"
           y="-399.26328" /></text>
<text
         xml:space="preserve"
         style="font-style:normal;font-variant:normal;font-weight:normal;font-stretch:normal;font-size:32px;line-height:125%;font-family:Confluence;-inkscape-font-specification:'Confluence, Normal';text-align:start;letter-spacing:0px;word-spacing:0px;writing-mode:lr-tb;text-anchor:start;fill:#000000;fill-opacity:1;stroke:none;stroke-width:1px;stroke-linecap:butt;stroke-linejoin:miter;stroke-opacity:1"
         x="184.88457"
         y="-409.64084"
         id="text5163"
         sodipodi:linespacing="125%"
         transform="scale(1,-1)"><tspan
           sodipodi:role="line"
           id="tspan5165"
           x="184.88457"
           y="-409.64084" /></text>
<text
         xml:space="preserve"
         style="font-style:normal;font-variant:normal;font-weight:normal;font-stretch:normal;font-size:32px;line-height:125%;font-family:Confluence;-inkscape-font-specification:'Confluence, Normal';text-align:start;letter-spacing:0px;word-spacing:0px;writing-mode:lr-tb;text-anchor:start;fill:#000000;fill-opacity:1;stroke:none;stroke-width:1px;stroke-linecap:butt;stroke-linejoin:miter;stroke-opacity:1"
         x="203.72804"
         y="-409.36777"
         id="text5167"
         sodipodi:linespacing="125%"
         transform="scale(1,-1)"><tspan
           sodipodi:role="line"
           id="tspan5169"
           x="203.72804"
           y="-409.36777" /></text>
<text
         xml:space="preserve"
         style="font-style:normal;font-variant:normal;font-weight:normal;font-stretch:normal;font-size:32px;line-height:125%;font-family:Confluence;-inkscape-font-specification:'Confluence, Normal';text-align:start;letter-spacing:0px;word-spacing:0px;writing-mode:lr-tb;text-anchor:start;fill:#000000;fill-opacity:1;stroke:none;stroke-width:1px;stroke-linecap:butt;stroke-linejoin:miter;stroke-opacity:1"
         x="237.59167"
         y="-405.81754"
         id="text5171"
         sodipodi:linespacing="125%"
         transform="scale(1,-1)"><tspan
           sodipodi:role="line"
           id="tspan5173"
           x="237.59167"
           y="-405.81754" /></text>
</g></g></svg>