<?xml version="1.0" encoding="UTF-8" standalone="no"?>
<!-- Created with Inkscape (http://www.inkscape.org/) -->

<svg
   width="100"
   height="100"
   viewBox="0 0 100 99.999997"
   id="svg6176"
   version="1.1"
   inkscape:version="1.3.2 (091e20e, 2023-11-25, custom)"
   sodipodi:docname="Toulouse_line_B_symbol.svg"
   xmlns:inkscape="http://www.inkscape.org/namespaces/inkscape"
   xmlns:sodipodi="http://sodipodi.sourceforge.net/DTD/sodipodi-0.dtd"
   xmlns="http://www.w3.org/2000/svg"
   xmlns:svg="http://www.w3.org/2000/svg"
   xmlns:rdf="http://www.w3.org/1999/02/22-rdf-syntax-ns#"
   xmlns:cc="http://creativecommons.org/ns#"
   xmlns:dc="http://purl.org/dc/elements/1.1/">
  <defs
     id="defs6178" />
  <sodipodi:namedview
     id="base"
     pagecolor="#ffffff"
     bordercolor="#666666"
     borderopacity="1.0"
     inkscape:pageopacity="0.0"
     inkscape:pageshadow="2"
     inkscape:zoom="5.6"
     inkscape:cx="63.928571"
     inkscape:cy="38.660714"
     inkscape:document-units="px"
     inkscape:current-layer="layer1"
     showgrid="false"
     fit-margin-top="0"
     fit-margin-left="0"
     fit-margin-right="0"
     fit-margin-bottom="0"
     inkscape:window-width="1920"
     inkscape:window-height="1009"
     inkscape:window-x="1912"
     inkscape:window-y="116"
     inkscape:window-maximized="1"
     units="px"
     inkscape:showpageshadow="2"
     inkscape:pagecheckerboard="0"
     inkscape:deskcolor="#d1d1d1" />
  <metadata
     id="metadata6181">
    <rdf:RDF>
      <cc:Work
         rdf:about="">
        <dc:format>image/svg+xml</dc:format>
        <dc:type
           rdf:resource="http://purl.org/dc/dcmitype/StillImage" />
        <dc:title />
      </cc:Work>
    </rdf:RDF>
  </metadata>
  <g
     inkscape:label="Calque 1"
     inkscape:groupmode="layer"
     id="layer1"
     transform="translate(-102.45044,-424.85327)">
    <path
       d="m 202.44614,524.85327 -99.9957,0 0,-99.83714 99.9957,0 0,99.83714 z"
       style="fill:#fbc817;fill-opacity:1;fill-rule:nonzero;stroke:none"
       id="path2740"
       inkscape:connector-curvature="0" />
    <g
       id="g2736"
       transform="matrix(3.0680651,0,0,-3.0680651,-26.507837,388.48163)">
      <path
         d="m 55.714285,-34.571428 1.579,0 c 1.952,0 3.99,0.287 3.99,2.325 0,2.182 -2.096,2.383 -3.933,2.383 l -1.636,0 0,-4.708 z m 0,8.325 1.492,0 c 1.752,0 3.56,0.43 3.56,2.124 0,1.837 -1.722,2.009 -3.502,2.009 l -1.55,0 0,-4.133 z m -5.339,7.923 9.214,0 c 3.732,0 6.516,-1.637 6.516,-5.081 0,-2.526 -1.291,-3.933 -3.53,-4.68 l 0,-0.057 c 2.669,-0.545 4.047,-1.981 4.047,-4.421 0,-4.793 -4.22,-5.798 -7.808,-5.798 l -8.439,0 0,20.037 z"
         style="fill:#231f20;fill-opacity:1;fill-rule:nonzero;stroke:none"
         id="path2738"
         inkscape:connector-curvature="0" />
    </g>
  </g>
</svg>
