<?xml version="1.0" encoding="UTF-8" standalone="no"?>
<!-- Created with Inkscape (http://www.inkscape.org/) -->

<svg
   xmlns:dc="http://purl.org/dc/elements/1.1/"
   xmlns:cc="http://creativecommons.org/ns#"
   xmlns:rdf="http://www.w3.org/1999/02/22-rdf-syntax-ns#"
   xmlns:svg="http://www.w3.org/2000/svg"
   xmlns="http://www.w3.org/2000/svg"
   xmlns:sodipodi="http://sodipodi.sourceforge.net/DTD/sodipodi-0.dtd"
   xmlns:inkscape="http://www.inkscape.org/namespaces/inkscape"
   width="120"
   height="120"
   viewBox="0 0 120 120.00001"
   id="svg12112"
   version="1.1"
   inkscape:version="0.91 r13725"
   sodipodi:docname="Tram_Toulouse_T2.svg">
  <defs
     id="defs12114">
    <clipPath
       id="clipPath12692"
       clipPathUnits="userSpaceOnUse">
      <path
         inkscape:connector-curvature="0"
         id="path12694"
         d="m 0,595.28 595.28,0 L 595.28,0 0,0 0,595.28 Z" />
    </clipPath>
    <clipPath
       id="clipPath13026"
       clipPathUnits="userSpaceOnUse">
      <path
         inkscape:connector-curvature="0"
         id="path13028"
         d="m -7.34961,3.44141 14.69971,0 0,-6.8833 -14.69971,0 0,6.8833 z" />
    </clipPath>
    <clipPath
       id="clipPath13074"
       clipPathUnits="userSpaceOnUse">
      <path
         inkscape:connector-curvature="0"
         id="path13076"
         d="m -3.50244,3.50195 7.00488,0 0,-7.0039 -7.00488,0 0,7.0039 z" />
    </clipPath>
    <clipPath
       id="clipPath13110"
       clipPathUnits="userSpaceOnUse">
      <path
         inkscape:connector-curvature="0"
         id="path13112"
         d="m -3.50244,3.50195 7.00488,0 0,-7.0039 -7.00488,0 0,7.0039 z" />
    </clipPath>
    <clipPath
       id="clipPath16246"
       clipPathUnits="userSpaceOnUse">
      <path
         inkscape:connector-curvature="0"
         id="path16248"
         d="m -3.2168,3.21631 6.43262,0 0,-6.43262 -6.43262,0 0,6.43262 z" />
    </clipPath>
    <clipPath
       id="clipPath16264"
       clipPathUnits="userSpaceOnUse">
      <path
         inkscape:connector-curvature="0"
         id="path16266"
         d="m -3.41504,3.41455 6.83008,0 0,-6.82959 -6.83008,0 0,6.82959 z" />
    </clipPath>
    <clipPath
       id="clipPath16292"
       clipPathUnits="userSpaceOnUse">
      <path
         inkscape:connector-curvature="0"
         id="path16294"
         d="m -3.2168,3.21631 6.43262,0 0,-6.43262 -6.43262,0 0,6.43262 z" />
    </clipPath>
    <clipPath
       id="clipPath16310"
       clipPathUnits="userSpaceOnUse">
      <path
         inkscape:connector-curvature="0"
         id="path16312"
         d="m -3.41504,3.41455 6.83008,0 0,-6.82959 -6.83008,0 0,6.82959 z" />
    </clipPath>
    <clipPath
       id="clipPath17178"
       clipPathUnits="userSpaceOnUse">
      <path
         inkscape:connector-curvature="0"
         id="path17180"
         d="m -3.50244,3.50195 7.00439,0 0,-7.0039 -7.00439,0 0,7.0039 z" />
    </clipPath>
    <clipPath
       id="clipPath17244"
       clipPathUnits="userSpaceOnUse">
      <path
         inkscape:connector-curvature="0"
         id="path17246"
         d="m -3.50244,3.50195 7.00439,0 0,-7.0039 -7.00439,0 0,7.0039 z" />
    </clipPath>
    <clipPath
       id="clipPath17336"
       clipPathUnits="userSpaceOnUse">
      <path
         inkscape:connector-curvature="0"
         id="path17338"
         d="m -3.50244,3.50195 7.00439,0 0,-7.0039 -7.00439,0 0,7.0039 z" />
    </clipPath>
    <clipPath
       id="clipPath17508"
       clipPathUnits="userSpaceOnUse">
      <path
         inkscape:connector-curvature="0"
         id="path17510"
         d="m -3.50244,3.50195 7.00439,0 0,-7.0039 -7.00439,0 0,7.0039 z" />
    </clipPath>
    <clipPath
       id="clipPath17540"
       clipPathUnits="userSpaceOnUse">
      <path
         inkscape:connector-curvature="0"
         id="path17542"
         d="m -3.50244,3.50195 7.00439,0 0,-7.0039 -7.00439,0 0,7.0039 z" />
    </clipPath>
    <clipPath
       id="clipPath17860"
       clipPathUnits="userSpaceOnUse">
      <path
         inkscape:connector-curvature="0"
         id="path17862"
         d="m -3.50244,3.50195 7.00439,0 0,-7.0039 -7.00439,0 0,7.0039 z" />
    </clipPath>
    <clipPath
       id="clipPath17890"
       clipPathUnits="userSpaceOnUse">
      <path
         inkscape:connector-curvature="0"
         id="path17892"
         d="m -3.50244,3.50195 7.00439,0 0,-7.0039 -7.00439,0 0,7.0039 z" />
    </clipPath>
    <clipPath
       id="clipPath17922"
       clipPathUnits="userSpaceOnUse">
      <path
         inkscape:connector-curvature="0"
         id="path17924"
         d="m -3.50244,3.50195 7.00439,0 0,-7.0039 -7.00439,0 0,7.0039 z" />
    </clipPath>
  </defs>
  <sodipodi:namedview
     id="base"
     pagecolor="#ffffff"
     bordercolor="#666666"
     borderopacity="1.0"
     inkscape:pageopacity="0.0"
     inkscape:pageshadow="2"
     inkscape:zoom="1.4"
     inkscape:cx="99.049579"
     inkscape:cy="145.56151"
     inkscape:document-units="px"
     inkscape:current-layer="layer1"
     showgrid="false"
     fit-margin-top="0"
     fit-margin-left="0"
     fit-margin-right="0"
     fit-margin-bottom="0"
     inkscape:window-width="944"
     inkscape:window-height="1122"
     inkscape:window-x="0"
     inkscape:window-y="0"
     inkscape:window-maximized="0"
     units="px" />
  <metadata
     id="metadata12117">
    <rdf:RDF>
      <cc:Work
         rdf:about="">
        <dc:format>image/svg+xml</dc:format>
        <dc:type
           rdf:resource="http://purl.org/dc/dcmitype/StillImage" />
        <dc:title></dc:title>
      </cc:Work>
    </rdf:RDF>
  </metadata>
  <g
     inkscape:label="Calque 1"
     inkscape:groupmode="layer"
     id="layer1"
     transform="translate(984.54147,205.00797)">
    <g
       transform="translate(-136.91353,5.7627889e-7)"
       id="g4214">
      <path
         d="m -727.62794,-85.007967 -120,0 0,-120.000003 120,0 0,120.000003 z"
         style="fill:#4299da;fill-opacity:1;fill-rule:nonzero;stroke:none"
         id="path8686"
         inkscape:connector-curvature="0" />
      <g
         transform="translate(-1.0223342,-0.00363431)"
         id="g4200">
        <g
           transform="matrix(12.097994,0,0,-12.097994,-805.16272,-163.54451)"
           id="g8690">
          <path
             inkscape:connector-curvature="0"
             id="path8692"
             style="fill:#ffffff;fill-opacity:1;fill-rule:nonzero;stroke:none"
             d="m 0,0 -1.25,0 0,1.002 3.85,0 L 2.6,0 1.351,0 1.351,-4.067 0,-4.067 0,0 Z" />
        </g>
        <g
           transform="matrix(12.097994,0,0,-12.097994,-775.11372,-120.18651)"
           id="g8694">
          <path
             inkscape:connector-curvature="0"
             id="path8696"
             style="fill:#ffffff;fill-opacity:1;fill-rule:nonzero;stroke:none"
             d="M 0,0 C 0.516,0.446 1.111,0.933 1.111,1.274 1.111,1.5 0.955,1.594 0.752,1.594 0.534,1.594 0.244,1.51 0.087,1.419 L 0.062,1.946 c 0.363,0.131 0.603,0.149 0.751,0.149 0.567,0 0.974,-0.24 0.974,-0.744 0,-0.495 -0.534,-0.992 -0.774,-1.199 l -0.181,-0.156 1.002,0 0,-0.479 L 0,-0.483 0,0 Z" />
        </g>
      </g>
    </g>
  </g>
</svg>
