<?xml version="1.0" encoding="UTF-8" standalone="no"?>
<svg
   xmlns:dc="http://purl.org/dc/elements/1.1/"
   xmlns:cc="http://creativecommons.org/ns#"
   xmlns:rdf="http://www.w3.org/1999/02/22-rdf-syntax-ns#"
   xmlns:svg="http://www.w3.org/2000/svg"
   xmlns="http://www.w3.org/2000/svg"
   xmlns:sodipodi="http://sodipodi.sourceforge.net/DTD/sodipodi-0.dtd"
   xmlns:inkscape="http://www.inkscape.org/namespaces/inkscape"
   width="40.595676mm"
   height="40.595676mm"
   viewBox="0 0 40.595676 26.457655"
   version="1.1"
   id="svg62"
   inkscape:version="1.0.1 (3bc2e813f5, 2020-09-07)"
   sodipodi:docname="Toulouse line Téléo symbol.svg">
  <defs
     id="defs56" />
  <sodipodi:namedview
     id="base"
     pagecolor="#ffffff"
     bordercolor="#666666"
     borderopacity="1.0"
     inkscape:pageopacity="0.0"
     inkscape:pageshadow="2"
     inkscape:zoom="3.959798"
     inkscape:cx="78.442359"
     inkscape:cy="93.350735"
     inkscape:document-units="mm"
     inkscape:current-layer="layer1"
     inkscape:document-rotation="0"
     showgrid="false"
     fit-margin-top="0"
     fit-margin-left="0"
     fit-margin-right="0"
     fit-margin-bottom="0"
     inkscape:window-width="1566"
     inkscape:window-height="1020"
     inkscape:window-x="197"
     inkscape:window-y="39"
     inkscape:window-maximized="0" />
  <metadata
     id="metadata59">
    <rdf:RDF>
      <cc:Work
         rdf:about="">
        <dc:format>image/svg+xml</dc:format>
        <dc:type
           rdf:resource="http://purl.org/dc/dcmitype/StillImage" />
        <dc:title></dc:title>
      </cc:Work>
    </rdf:RDF>
  </metadata>
  <g
     inkscape:label="Layer 1"
     inkscape:groupmode="layer"
     id="layer1"
     transform="translate(-51.261683,-83.533081)">
    <g
       id="g37873"
       transform="matrix(3.1564847,0,0,-3.1564847,-787.99515,275.69987)">
      <path
         d="m 279.794,50.498 h -14.277 v 12.382 h 14.277 z"
         style="fill:#ec0677;fill-opacity:1;fill-rule:nonzero;stroke:none"
         id="path20474" />
      <g
         id="g20476"
         transform="translate(266.7754,57.2021)">
        <path
           d="M 0,0 H 0.463 V 0.513 L 1.235,0.754 V 0 h 0.55 v -0.552 h -0.55 v -0.841 c 0,-0.275 0.066,-0.416 0.314,-0.416 0.079,0 0.162,0.018 0.241,0.032 L 1.815,-2.29 C 1.667,-2.308 1.519,-2.334 1.322,-2.334 0.62,-2.334 0.45,-2.022 0.45,-1.479 v 0.927 H 0 Z"
           style="fill:#ffffff;fill-opacity:1;fill-rule:nonzero;stroke:none"
           id="path20478" />
      </g>
      <g
         id="g20480"
         transform="translate(269.916,58.1133)">
        <path
           d="M 0,0 H 0.816 L 0.253,-0.631 h -0.55 z m 0.458,-1.835 c 0,0.263 -0.122,0.478 -0.436,0.478 -0.284,0 -0.419,-0.215 -0.437,-0.478 z m -0.864,-0.446 c 0.044,-0.316 0.284,-0.439 0.668,-0.439 0.214,0 0.458,0.049 0.694,0.176 v -0.557 c -0.253,-0.1 -0.541,-0.144 -0.834,-0.144 -0.75,0 -1.322,0.442 -1.322,1.195 0,0.754 0.511,1.192 1.218,1.192 0.842,0 1.147,-0.6 1.147,-1.279 v -0.144 z"
           style="fill:#ffffff;fill-opacity:1;fill-rule:nonzero;stroke:none"
           id="path20482" />
      </g>
      <path
         d="m 271.363,58.205 h 0.786 v -3.284 h -0.786 z"
         style="fill:#ffffff;fill-opacity:1;fill-rule:nonzero;stroke:none"
         id="path20484" />
      <g
         id="g20486"
         transform="translate(273.6011,58.1133)">
        <path
           d="M 0,0 H 0.816 L 0.253,-0.631 h -0.55 z m 0.458,-1.835 c 0,0.263 -0.122,0.478 -0.436,0.478 -0.284,0 -0.419,-0.215 -0.437,-0.478 z m -0.864,-0.446 c 0.044,-0.316 0.284,-0.439 0.668,-0.439 0.214,0 0.458,0.049 0.694,0.176 v -0.557 c -0.253,-0.1 -0.541,-0.144 -0.834,-0.144 -0.75,0 -1.322,0.442 -1.322,1.195 0,0.754 0.511,1.192 1.218,1.192 0.842,0 1.147,-0.6 1.147,-1.279 v -0.144 z"
           style="fill:#ffffff;fill-opacity:1;fill-rule:nonzero;stroke:none"
           id="path20488" />
      </g>
      <g
         id="g20490"
         transform="translate(276.7676,56.0596)">
        <path
           d="m 0,0 c 0,0.342 -0.148,0.644 -0.511,0.644 -0.362,0 -0.51,-0.302 -0.51,-0.644 0,-0.337 0.148,-0.64 0.51,-0.64 C -0.148,-0.64 0,-0.337 0,0 m -1.833,0 c 0,0.758 0.572,1.195 1.322,1.195 0.751,0 1.323,-0.437 1.323,-1.195 0,-0.753 -0.572,-1.191 -1.323,-1.191 -0.75,0 -1.322,0.438 -1.322,1.191"
           style="fill:#ffffff;fill-opacity:1;fill-rule:nonzero;stroke:none"
           id="path20492" />
      </g>
    </g>
  </g>
</svg>
